<?xml version="1.0" encoding="utf-8"?>
<!-- Generator: Adobe Illustrator 24.1.0, SVG Export Plug-In . SVG Version: 6.00 Build 0)  -->
<svg version="1.1" id="圖層_1" xmlns="http://www.w3.org/2000/svg" xmlns:xlink="http://www.w3.org/1999/xlink" x="0px" y="0px"
	 viewBox="0 0 512 512" style="enable-background:new 0 0 512 512;" xml:space="preserve">
<style type="text/css">
	.st0{fill:#FFFFFF;}
</style>
<path class="st0" d="M256,32c12.5,0,24.1,6.4,30.8,17l216.6,345.4c5.6,8.9,8.6,19.2,8.6,29.7c0,30.9-25,55.9-55.9,55.9H55.9
	C25,480,0,455,0,424.1c0-10.5,3-20.8,8.6-29.7L225.2,49C231.8,38.4,243.5,32,256,32z M321,224l-65-103.6l-79.1,126.1l18.3,24.4
	c6.4,8.5,19.2,8.5,25.6,0l25.6-34.1c6-8.1,15.5-12.8,25.6-12.8L321,224L321,224z"/>
</svg>
